<svg xmlns="http://www.w3.org/2000/svg" viewBox="0 0 1240 1090" width="1240" height="1090">
<rect x="0" y="0" width="1240" height="1090" rx="0" fill="#12121c" stroke="none" stroke-width="1"  />
<text x="24" y="30" font-family="Segoe UI, Arial, sans-serif" font-size="13" fill="#c4d4e8" text-anchor="start"  >QuickLaunch regions: the five layouts at icon size 64 (1 px = 1 DIP). Cyan = region surface, magenta dashes = tile hit squares, yellow dashes = region box.</text>
<text x="24" y="62" font-family="Segoe UI, Arial, sans-serif" font-size="12" fill="#8aa0b8" text-anchor="start"  >GRID  424 x 300 (free size, min 180 x 150), scrolls when full</text>
<rect x="24" y="70" width="424" height="300" rx="3" fill="#0a0618" stroke="#00f0ff" stroke-width="1"  />
<rect x="24" y="70" width="424" height="40" rx="0" fill="#0d1a24" stroke="none" stroke-width="1"  />
<line x1="24" y1="110" x2="448" y2="110" stroke="#00f0ff" stroke-width="0.5" />
<rect x="36" y="80" width="20" height="20" rx="4" fill="none" stroke="#00f0ff" stroke-width="1"  />
<text x="64" y="95" font-family="Segoe UI, Arial, sans-serif" font-size="11" fill="#00f0ff" text-anchor="start" font-weight="700" letter-spacing="3">QUICK.LAUNCH</text>
<rect x="304" y="78" width="28" height="24" rx="3" fill="none" stroke="#8aa0b8" stroke-width="1"  /><text x="318" y="95" font-family="Segoe UI, Arial, sans-serif" font-size="9" fill="#c4d4e8" text-anchor="middle"  >RND</text>
<rect x="340" y="78" width="28" height="24" rx="3" fill="none" stroke="#8aa0b8" stroke-width="1"  /><text x="354" y="95" font-family="Segoe UI, Arial, sans-serif" font-size="13" fill="#c4d4e8" text-anchor="middle"  >⚙</text>
<rect x="376" y="78" width="28" height="24" rx="3" fill="none" stroke="#8aa0b8" stroke-width="1"  /><text x="390" y="95" font-family="Segoe UI, Arial, sans-serif" font-size="13" fill="#c4d4e8" text-anchor="middle"  >╌</text>
<rect x="412" y="78" width="28" height="24" rx="3" fill="none" stroke="#8aa0b8" stroke-width="1"  /><text x="426" y="95" font-family="Segoe UI, Arial, sans-serif" font-size="13" fill="#c4d4e8" text-anchor="middle"  >⋯</text>
<rect x="70" y="132" width="64" height="64" rx="8" fill="#2b2f5e" stroke="#00f0ff" stroke-width="0.6"  opacity="1"/><text x="102" y="212" font-family="Segoe UI, Arial, sans-serif" font-size="12" fill="#c4d4e8" text-anchor="middle"  >Notes</text>
<rect x="70" y="236" width="64" height="64" rx="8" fill="#2b2f5e" stroke="#00f0ff" stroke-width="0.6"  opacity="1"/><text x="102" y="316" font-family="Segoe UI, Arial, sans-serif" font-size="12" fill="#c4d4e8" text-anchor="middle"  >Game</text>
<rect x="202" y="132" width="64" height="64" rx="8" fill="#2b2f5e" stroke="#00f0ff" stroke-width="0.6"  opacity="1"/><text x="234" y="212" font-family="Segoe UI, Arial, sans-serif" font-size="12" fill="#c4d4e8" text-anchor="middle"  >Browser</text>
<rect x="202" y="236" width="64" height="64" rx="8" fill="#2b2f5e" stroke="#00f0ff" stroke-width="0.6"  opacity="1"/><text x="234" y="316" font-family="Segoe UI, Arial, sans-serif" font-size="12" fill="#c4d4e8" text-anchor="middle"  >Mail</text>
<rect x="334" y="132" width="64" height="64" rx="8" fill="#2b2f5e" stroke="#00f0ff" stroke-width="0.6"  opacity="1"/><text x="366" y="212" font-family="Segoe UI, Arial, sans-serif" font-size="12" fill="#c4d4e8" text-anchor="middle"  >Terminal</text>
<rect x="334" y="236" width="64" height="64" rx="8" fill="#2b2f5e" stroke="#00f0ff" stroke-width="0.6"  opacity="1"/><text x="366" y="316" font-family="Segoe UI, Arial, sans-serif" font-size="12" fill="#c4d4e8" text-anchor="middle"  >Music</text>
<rect x="24" y="326" width="424" height="44" rx="0" fill="#12102a" stroke="none" stroke-width="1"  />
<line x1="24" y1="326" x2="448" y2="326" stroke="#00f0ff" stroke-width="0.5" />
<text x="48" y="353" font-family="Segoe UI, Arial, sans-serif" font-size="11" fill="#8aa0b8" text-anchor="start"  letter-spacing="1.5">THEME QUOTE LINE (banner, Grid only)</text>
<text x="500" y="62" font-family="Segoe UI, Arial, sans-serif" font-size="12" fill="#8aa0b8" text-anchor="start"  >COLUMN  180 wide; height follows content</text>
<rect x="500" y="70" width="180" height="376" rx="3" fill="#0a0618" stroke="#00f0ff" stroke-width="1"  />
<rect x="500" y="70" width="180" height="40" rx="0" fill="#0d1a24" stroke="none" stroke-width="1"  />
<rect x="510" y="80" width="20" height="20" rx="4" fill="none" stroke="#00f0ff" stroke-width="1"  />
<text x="538" y="95" font-family="Segoe UI, Arial, sans-serif" font-size="11" fill="#00f0ff" text-anchor="start" font-weight="700" letter-spacing="2">Games</text>
<rect x="642" y="78" width="28" height="24" rx="3" fill="none" stroke="#8aa0b8" stroke-width="1"  /><text x="656" y="95" font-family="Segoe UI, Arial, sans-serif" font-size="13" fill="#c4d4e8" text-anchor="middle"  >⋯</text>
<rect x="556" y="132" width="64" height="64" rx="8" fill="#2b2f5e" stroke="#00f0ff" stroke-width="0.6"  opacity="1"/><text x="588" y="212" font-family="Segoe UI, Arial, sans-serif" font-size="12" fill="#c4d4e8" text-anchor="middle"  >Game A</text>
<rect x="556" y="236" width="64" height="64" rx="8" fill="#2b2f5e" stroke="#00f0ff" stroke-width="0.6"  opacity="1"/><text x="588" y="316" font-family="Segoe UI, Arial, sans-serif" font-size="12" fill="#c4d4e8" text-anchor="middle"  >Game B</text>
<rect x="556" y="340" width="64" height="64" rx="8" fill="#2b2f5e" stroke="#00f0ff" stroke-width="0.6"  opacity="1"/><text x="588" y="420" font-family="Segoe UI, Arial, sans-serif" font-size="12" fill="#c4d4e8" text-anchor="middle"  >Game C</text>
<text x="24" y="462" font-family="Segoe UI, Arial, sans-serif" font-size="12" fill="#8aa0b8" text-anchor="start"  >ROW  height 128; width follows content (max 90% of the work area, then scrolls sideways)</text>
<rect x="24" y="470" width="644" height="128" rx="3" fill="#0a0618" stroke="#00f0ff" stroke-width="1"  />
<rect x="24" y="470" width="96" height="128" rx="0" fill="#0d1a24" stroke="none" stroke-width="1"  />
<line x1="120" y1="470" x2="120" y2="598" stroke="#00f0ff" stroke-width="0.5" />
<rect x="62" y="500" width="20" height="20" rx="4" fill="none" stroke="#00f0ff" stroke-width="1"  /><text x="72" y="538" font-family="Segoe UI, Arial, sans-serif" font-size="12" fill="#c4d4e8" text-anchor="middle"  >Work</text><rect x="58" y="554" width="28" height="24" rx="3" fill="none" stroke="#8aa0b8" stroke-width="1"  /><text x="72" y="571" font-family="Segoe UI, Arial, sans-serif" font-size="13" fill="#c4d4e8" text-anchor="middle"  >⋯</text>
<rect x="152" y="492" width="64" height="64" rx="8" fill="#2b2f5e" stroke="#00f0ff" stroke-width="0.6"  opacity="1"/><text x="184" y="572" font-family="Segoe UI, Arial, sans-serif" font-size="12" fill="#c4d4e8" text-anchor="middle"  >Code</text>
<rect x="256" y="492" width="64" height="64" rx="8" fill="#2b2f5e" stroke="#00f0ff" stroke-width="0.6"  opacity="1"/><text x="288" y="572" font-family="Segoe UI, Arial, sans-serif" font-size="12" fill="#c4d4e8" text-anchor="middle"  >Docs</text>
<rect x="360" y="492" width="64" height="64" rx="8" fill="#2b2f5e" stroke="#00f0ff" stroke-width="0.6"  opacity="1"/><text x="392" y="572" font-family="Segoe UI, Arial, sans-serif" font-size="12" fill="#c4d4e8" text-anchor="middle"  >Chat</text>
<rect x="464" y="492" width="64" height="64" rx="8" fill="#2b2f5e" stroke="#00f0ff" stroke-width="0.6"  opacity="1"/><text x="496" y="572" font-family="Segoe UI, Arial, sans-serif" font-size="12" fill="#c4d4e8" text-anchor="middle"  >Sheet</text>
<rect x="568" y="492" width="64" height="64" rx="8" fill="#2b2f5e" stroke="#00f0ff" stroke-width="0.6"  opacity="1"/><text x="600" y="572" font-family="Segoe UI, Arial, sans-serif" font-size="12" fill="#c4d4e8" text-anchor="middle"  >Slides</text>
<text x="24" y="692" font-family="Segoe UI, Arial, sans-serif" font-size="12" fill="#8aa0b8" text-anchor="start"  >FAN (opens up), 6 items: R 164, pitch 36 deg, box 420 x 258, pivot 202 from top. Max 10.</text>
<rect x="24" y="700" width="420" height="258" rx="0" fill="none" stroke="#e8ff00" stroke-width="1" stroke-dasharray="6 4" />
<line x1="32" y1="902" x2="436" y2="902" stroke="#8aa0b8" stroke-width="1" stroke-dasharray="2 4"/>
<rect x="32" y="864" width="76" height="76" rx="0" fill="none" stroke="#ff00aa" stroke-width="1" stroke-dasharray="3 3" /><rect x="34" y="866" width="72" height="72" rx="8" fill="#0a0618" stroke="#00f0ff" stroke-width="0.8"  /><rect x="38" y="870" width="64" height="64" rx="8" fill="#2b2f5e" stroke="none" stroke-width="1"  />
<rect x="63.32121292250861" y="767.6032186240344" width="76" height="76" rx="0" fill="none" stroke="#ff00aa" stroke-width="1" stroke-dasharray="3 3" /><rect x="65.32121292250861" y="769.6032186240344" width="72" height="72" rx="8" fill="#0a0618" stroke="#00f0ff" stroke-width="0.8"  /><rect x="69.32121292250861" y="773.6032186240344" width="64" height="64" rx="8" fill="#2b2f5e" stroke="none" stroke-width="1"  />
<rect x="145.32121292250864" y="708.0267313275948" width="76" height="76" rx="0" fill="none" stroke="#ff00aa" stroke-width="1" stroke-dasharray="3 3" /><rect x="147.32121292250864" y="710.0267313275948" width="72" height="72" rx="8" fill="#0a0618" stroke="#00f0ff" stroke-width="0.8"  /><rect x="151.32121292250864" y="714.0267313275948" width="64" height="64" rx="8" fill="#2b2f5e" stroke="none" stroke-width="1"  />
<rect x="246.6787870774914" y="708.0267313275948" width="76" height="76" rx="0" fill="none" stroke="#ff00aa" stroke-width="1" stroke-dasharray="3 3" /><rect x="248.6787870774914" y="710.0267313275948" width="72" height="72" rx="8" fill="#0a0618" stroke="#00f0ff" stroke-width="0.8"  /><rect x="252.6787870774914" y="714.0267313275948" width="64" height="64" rx="8" fill="#2b2f5e" stroke="none" stroke-width="1"  />
<rect x="328.6787870774914" y="767.6032186240344" width="76" height="76" rx="0" fill="none" stroke="#ff00aa" stroke-width="1" stroke-dasharray="3 3" /><rect x="330.6787870774914" y="769.6032186240344" width="72" height="72" rx="8" fill="#0a0618" stroke="#00f0ff" stroke-width="0.8"  /><rect x="334.6787870774914" y="773.6032186240344" width="64" height="64" rx="8" fill="#2b2f5e" stroke="none" stroke-width="1"  />
<rect x="360" y="864" width="76" height="76" rx="0" fill="none" stroke="#ff00aa" stroke-width="1" stroke-dasharray="3 3" /><rect x="362" y="866" width="72" height="72" rx="8" fill="#0a0618" stroke="#00f0ff" stroke-width="0.8"  /><rect x="366" y="870" width="64" height="64" rx="8" fill="#2b2f5e" stroke="none" stroke-width="1"  />
<circle cx="234" cy="902" r="48" fill="#0a0618" stroke="#00f0ff" stroke-width="1.2" /><rect x="224" y="868" width="20" height="20" rx="4" fill="none" stroke="#00f0ff" stroke-width="1"  /><text x="234" y="906" font-family="Segoe UI, Arial, sans-serif" font-size="12" fill="#c4d4e8" text-anchor="middle"  >Games</text><circle cx="234" cy="932" r="10" fill="none" stroke="#8aa0b8" stroke-width="1" /><text x="234" y="936" font-family="Segoe UI, Arial, sans-serif" font-size="12" fill="#8aa0b8" text-anchor="middle"  >...</text>
<line x1="234" y1="902" x2="366.6787870774914" y2="805.6032186240344" stroke="#e8ff00" stroke-width="1" stroke-dasharray="3 3"/>
<text x="306.3393935387457" y="849.8016093120173" font-family="Segoe UI, Arial, sans-serif" font-size="12" fill="#e8ff00" text-anchor="start"  >R 164</text>
<text x="500" y="692" font-family="Segoe UI, Arial, sans-serif" font-size="12" fill="#8aa0b8" text-anchor="start"  >RING, 8 items: R 122, pitch 45 deg, box 336 x 336. First item at 12 o'clock, clockwise. Max 12.</text>
<rect x="500" y="700" width="336" height="336" rx="0" fill="none" stroke="#e8ff00" stroke-width="1" stroke-dasharray="6 4" />
<rect x="630" y="708" width="76" height="76" rx="0" fill="none" stroke="#ff00aa" stroke-width="1" stroke-dasharray="3 3" /><rect x="632" y="710" width="72" height="72" rx="8" fill="#0a0618" stroke="#00f0ff" stroke-width="0.8"  /><rect x="636" y="714" width="64" height="64" rx="8" fill="#2b2f5e" stroke="none" stroke-width="1"  />
<rect x="716.2670273047588" y="743.7329726952412" width="76" height="76" rx="0" fill="none" stroke="#ff00aa" stroke-width="1" stroke-dasharray="3 3" /><rect x="718.2670273047588" y="745.7329726952412" width="72" height="72" rx="8" fill="#0a0618" stroke="#00f0ff" stroke-width="0.8"  /><rect x="722.2670273047588" y="749.7329726952412" width="64" height="64" rx="8" fill="#2b2f5e" stroke="none" stroke-width="1"  />
<rect x="752" y="830" width="76" height="76" rx="0" fill="none" stroke="#ff00aa" stroke-width="1" stroke-dasharray="3 3" /><rect x="754" y="832" width="72" height="72" rx="8" fill="#0a0618" stroke="#00f0ff" stroke-width="0.8"  /><rect x="758" y="836" width="64" height="64" rx="8" fill="#2b2f5e" stroke="none" stroke-width="1"  />
<rect x="716.2670273047588" y="916.2670273047588" width="76" height="76" rx="0" fill="none" stroke="#ff00aa" stroke-width="1" stroke-dasharray="3 3" /><rect x="718.2670273047588" y="918.2670273047588" width="72" height="72" rx="8" fill="#0a0618" stroke="#00f0ff" stroke-width="0.8"  /><rect x="722.2670273047588" y="922.2670273047588" width="64" height="64" rx="8" fill="#2b2f5e" stroke="none" stroke-width="1"  />
<rect x="630" y="952" width="76" height="76" rx="0" fill="none" stroke="#ff00aa" stroke-width="1" stroke-dasharray="3 3" /><rect x="632" y="954" width="72" height="72" rx="8" fill="#0a0618" stroke="#00f0ff" stroke-width="0.8"  /><rect x="636" y="958" width="64" height="64" rx="8" fill="#2b2f5e" stroke="none" stroke-width="1"  />
<rect x="543.7329726952412" y="916.2670273047588" width="76" height="76" rx="0" fill="none" stroke="#ff00aa" stroke-width="1" stroke-dasharray="3 3" /><rect x="545.7329726952412" y="918.2670273047588" width="72" height="72" rx="8" fill="#0a0618" stroke="#00f0ff" stroke-width="0.8"  /><rect x="549.7329726952412" y="922.2670273047588" width="64" height="64" rx="8" fill="#2b2f5e" stroke="none" stroke-width="1"  />
<rect x="508" y="830" width="76" height="76" rx="0" fill="none" stroke="#ff00aa" stroke-width="1" stroke-dasharray="3 3" /><rect x="510" y="832" width="72" height="72" rx="8" fill="#0a0618" stroke="#00f0ff" stroke-width="0.8"  /><rect x="514" y="836" width="64" height="64" rx="8" fill="#2b2f5e" stroke="none" stroke-width="1"  />
<rect x="543.7329726952412" y="743.7329726952412" width="76" height="76" rx="0" fill="none" stroke="#ff00aa" stroke-width="1" stroke-dasharray="3 3" /><rect x="545.7329726952412" y="745.7329726952412" width="72" height="72" rx="8" fill="#0a0618" stroke="#00f0ff" stroke-width="0.8"  /><rect x="549.7329726952412" y="749.7329726952412" width="64" height="64" rx="8" fill="#2b2f5e" stroke="none" stroke-width="1"  />
<circle cx="668" cy="868" r="48" fill="#0a0618" stroke="#00f0ff" stroke-width="1.2" /><rect x="658" y="834" width="20" height="20" rx="4" fill="none" stroke="#00f0ff" stroke-width="1"  /><text x="668" y="872" font-family="Segoe UI, Arial, sans-serif" font-size="12" fill="#c4d4e8" text-anchor="middle"  >Tools</text><circle cx="668" cy="898" r="10" fill="none" stroke="#8aa0b8" stroke-width="1" /><text x="668" y="902" font-family="Segoe UI, Arial, sans-serif" font-size="12" fill="#8aa0b8" text-anchor="middle"  >...</text>
<text x="730" y="84" font-family="Segoe UI, Arial, sans-serif" font-size="13" fill="#c4d4e8" text-anchor="start" font-weight="700" >Measurements</text>
<text x="730" y="106" font-family="Segoe UI, Arial, sans-serif" font-size="12" fill="#8aa0b8" text-anchor="start"  >Tile hit square T = icon + 12 = 76</text>
<text x="730" y="124" font-family="Segoe UI, Arial, sans-serif" font-size="12" fill="#8aa0b8" text-anchor="start"  >Gap between hit squares g = 6</text>
<text x="730" y="142" font-family="Segoe UI, Arial, sans-serif" font-size="12" fill="#8aa0b8" text-anchor="start"  >Hub radius 48 (diameter 96), a circle in every theme</text>
<text x="730" y="160" font-family="Segoe UI, Arial, sans-serif" font-size="12" fill="#8aa0b8" text-anchor="start"  >Fan/Ring tiles show no label; the hub shows the</text>
<text x="730" y="178" font-family="Segoe UI, Arial, sans-serif" font-size="12" fill="#8aa0b8" text-anchor="start"  >   name of the hovered or focused tile</text>
<text x="730" y="196" font-family="Segoe UI, Arial, sans-serif" font-size="12" fill="#8aa0b8" text-anchor="start"  >Radius R: smallest value (2 px steps), at least 96,</text>
<text x="730" y="214" font-family="Segoe UI, Arial, sans-serif" font-size="12" fill="#8aa0b8" text-anchor="start"  >   with no two hit squares closer than g</text>
<text x="730" y="232" font-family="Segoe UI, Arial, sans-serif" font-size="12" fill="#8aa0b8" text-anchor="start"  >Fan pitch = min(180/(n-1), 60); R never shrinks as n grows</text>
<text x="730" y="250" font-family="Segoe UI, Arial, sans-serif" font-size="12" fill="#8aa0b8" text-anchor="start"  >Box margin 8. Fan box ends 56 below the pivot (hub lower half)</text>
<text x="730" y="268" font-family="Segoe UI, Arial, sans-serif" font-size="12" fill="#8aa0b8" text-anchor="start"  >Edit bar: Grid labelled (as today); others icon cluster</text>
</svg>